<svg class="main-svg" xmlns="http://www.w3.org/2000/svg" xmlns:xlink="http://www.w3.org/1999/xlink" width="1000" height="750" style="" viewBox="0 0 1000 750"><rect x="0" y="0" width="1000" height="750" style="fill: rgb(0, 0, 0); fill-opacity: 0;"/><defs id="defs-4f3238"><g class="clips"><clipPath id="clip4f3238xyplot" class="plotclip"><rect width="867" height="620"/></clipPath><clipPath class="axesclip" id="clip4f3238x"><rect x="73" y="0" width="867" height="750"/></clipPath><clipPath class="axesclip" id="clip4f3238y"><rect x="0" y="70" width="1000" height="620"/></clipPath><clipPath class="axesclip" id="clip4f3238xy"><rect x="73" y="70" width="867" height="620"/></clipPath></g><g class="gradients"/><g class="patterns"/></defs><g class="bglayer"><rect class="bg" x="73" y="70" width="867" height="620" style="fill: rgb(0, 0, 0); fill-opacity: 0; stroke-width: 0;"/></g><g class="layer-below"><g class="imagelayer"/><g class="shapelayer"/></g><g class="cartesianlayer"><g class="subplot xy"><g class="layer-subplot"><g class="shapelayer"/><g class="imagelayer"/></g><g class="minor-gridlayer"><g class="x"/><g class="y"/></g><g class="gridlayer"><g class="x"/><g class="y"><path class="ygrid crisp" transform="translate(0,678.1)" d="M73,0h867" style="stroke: rgb(200, 200, 200); stroke-opacity: 0.3; stroke-width: 1px;"/><path class="ygrid crisp" transform="translate(0,612.06)" d="M73,0h867" style="stroke: rgb(200, 200, 200); stroke-opacity: 0.3; stroke-width: 1px;"/><path class="ygrid crisp" transform="translate(0,546.02)" d="M73,0h867" style="stroke: rgb(200, 200, 200); stroke-opacity: 0.3; stroke-width: 1px;"/><path class="ygrid crisp" transform="translate(0,479.99)" d="M73,0h867" style="stroke: rgb(200, 200, 200); stroke-opacity: 0.3; stroke-width: 1px;"/><path class="ygrid crisp" transform="translate(0,413.95)" d="M73,0h867" style="stroke: rgb(200, 200, 200); stroke-opacity: 0.3; stroke-width: 1px;"/><path class="ygrid crisp" transform="translate(0,347.92)" d="M73,0h867" style="stroke: rgb(200, 200, 200); stroke-opacity: 0.3; stroke-width: 1px;"/><path class="ygrid crisp" transform="translate(0,281.88)" d="M73,0h867" style="stroke: rgb(200, 200, 200); stroke-opacity: 0.3; stroke-width: 1px;"/><path class="ygrid crisp" transform="translate(0,215.85)" d="M73,0h867" style="stroke: rgb(200, 200, 200); stroke-opacity: 0.3; stroke-width: 1px;"/><path class="ygrid crisp" transform="translate(0,149.81)" d="M73,0h867" style="stroke: rgb(200, 200, 200); stroke-opacity: 0.3; stroke-width: 1px;"/><path class="ygrid crisp" transform="translate(0,83.77)" d="M73,0h867" style="stroke: rgb(200, 200, 200); stroke-opacity: 0.3; stroke-width: 1px;"/></g></g><g class="zerolinelayer"/><g class="layer-between"><g class="shapelayer"/><g class="imagelayer"/></g><path class="xlines-below"/><path class="ylines-below"/><g class="overlines-below"/><g class="xaxislayer-below"/><g class="yaxislayer-below"/><g class="overaxes-below"/><g class="overplot"><g class="xy" transform="translate(73,70)" clip-path="url(#clip4f3238xyplot)"><g class="scatterlayer mlayer"><g class="trace scatter trace86bbe7" style="stroke-miterlimit: 2; opacity: 1;"><g class="fills"/><g class="errorbars"/><g class="lines"><path class="js-line" d="M48.98,526.27L95.27,512.59L97.84,511.8L146.71,495.9L149.29,495.02L195.58,478.45L198.16,477.48L244.45,459.29L247.02,458.23L293.32,438.25L295.89,437.09L337.05,417.69L339.62,416.42L380.77,395.33L383.34,393.95L421.93,372.51L424.5,371.02L463.08,347.82L465.65,346.22L504.23,321.12L506.8,319.38L542.81,294.1L545.39,292.23L583.97,262.99L586.54,260.97L622.55,231.53L625.12,229.35L661.13,197.65L663.7,195.3L697.14,163.7L699.71,161.18L733.15,127.32L735.72,124.63L769.16,88.36L771.73,85.47L805.16,46.62L807.74,43.52L818.03,31" style="vector-effect: none; fill: none; stroke: rgb(192, 57, 43); stroke-opacity: 1; stroke-width: 2.5px; opacity: 1;"/></g><g class="points"/><g class="text"/></g><g class="trace scatter trace28c69a" style="stroke-miterlimit: 2; opacity: 1;"><g class="fills"/><g class="errorbars"/><g class="lines"/><g class="points"><path class="point" transform="translate(818.03,182.1)" d="M4.5,0A4.5,4.5 0 1,1 0,-4.5A4.5,4.5 0 0,1 4.5,0Z" style="opacity: 1; stroke-width: 1px; fill: rgb(26, 58, 92); fill-opacity: 1; stroke: rgb(255, 255, 255); stroke-opacity: 1;"/><path class="point" transform="translate(634.16,198.93)" d="M4.5,0A4.5,4.5 0 1,1 0,-4.5A4.5,4.5 0 0,1 4.5,0Z" style="opacity: 1; stroke-width: 1px; fill: rgb(26, 58, 92); fill-opacity: 1; stroke: rgb(255, 255, 255); stroke-opacity: 1;"/><path class="point" transform="translate(648.8,236.34)" d="M4.5,0A4.5,4.5 0 1,1 0,-4.5A4.5,4.5 0 0,1 4.5,0Z" style="opacity: 1; stroke-width: 1px; fill: rgb(26, 58, 92); fill-opacity: 1; stroke: rgb(255, 255, 255); stroke-opacity: 1;"/><path class="point" transform="translate(668.91,213.25)" d="M4.5,0A4.5,4.5 0 1,1 0,-4.5A4.5,4.5 0 0,1 4.5,0Z" style="opacity: 1; stroke-width: 1px; fill: rgb(26, 58, 92); fill-opacity: 1; stroke: rgb(255, 255, 255); stroke-opacity: 1;"/><path class="point" transform="translate(726.36,153.13)" d="M4.5,0A4.5,4.5 0 1,1 0,-4.5A4.5,4.5 0 0,1 4.5,0Z" style="opacity: 1; stroke-width: 1px; fill: rgb(26, 58, 92); fill-opacity: 1; stroke: rgb(255, 255, 255); stroke-opacity: 1;"/><path class="point" transform="translate(671.05,171.65)" d="M4.5,0A4.5,4.5 0 1,1 0,-4.5A4.5,4.5 0 0,1 4.5,0Z" style="opacity: 1; stroke-width: 1px; fill: rgb(26, 58, 92); fill-opacity: 1; stroke: rgb(255, 255, 255); stroke-opacity: 1;"/><path class="point" transform="translate(571.29,168.49)" d="M4.5,0A4.5,4.5 0 1,1 0,-4.5A4.5,4.5 0 0,1 4.5,0Z" style="opacity: 1; stroke-width: 1px; fill: rgb(26, 58, 92); fill-opacity: 1; stroke: rgb(255, 255, 255); stroke-opacity: 1;"/><path class="point" transform="translate(538.3,160.44)" d="M4.5,0A4.5,4.5 0 1,1 0,-4.5A4.5,4.5 0 0,1 4.5,0Z" style="opacity: 1; stroke-width: 1px; fill: rgb(26, 58, 92); fill-opacity: 1; stroke: rgb(255, 255, 255); stroke-opacity: 1;"/><path class="point" transform="translate(696.66,207.18)" d="M4.5,0A4.5,4.5 0 1,1 0,-4.5A4.5,4.5 0 0,1 4.5,0Z" style="opacity: 1; stroke-width: 1px; fill: rgb(26, 58, 92); fill-opacity: 1; stroke: rgb(255, 255, 255); stroke-opacity: 1;"/><path class="point" transform="translate(530.32,182.7)" d="M4.5,0A4.5,4.5 0 1,1 0,-4.5A4.5,4.5 0 0,1 4.5,0Z" style="opacity: 1; stroke-width: 1px; fill: rgb(26, 58, 92); fill-opacity: 1; stroke: rgb(255, 255, 255); stroke-opacity: 1;"/><path class="point" transform="translate(407.44,190.24)" d="M4.5,0A4.5,4.5 0 1,1 0,-4.5A4.5,4.5 0 0,1 4.5,0Z" style="opacity: 1; stroke-width: 1px; fill: rgb(26, 58, 92); fill-opacity: 1; stroke: rgb(255, 255, 255); stroke-opacity: 1;"/><path class="point" transform="translate(494.87,217.66)" d="M4.5,0A4.5,4.5 0 1,1 0,-4.5A4.5,4.5 0 0,1 4.5,0Z" style="opacity: 1; stroke-width: 1px; fill: rgb(26, 58, 92); fill-opacity: 1; stroke: rgb(255, 255, 255); stroke-opacity: 1;"/><path class="point" transform="translate(494.92,159.44)" d="M4.5,0A4.5,4.5 0 1,1 0,-4.5A4.5,4.5 0 0,1 4.5,0Z" style="opacity: 1; stroke-width: 1px; fill: rgb(26, 58, 92); fill-opacity: 1; stroke: rgb(255, 255, 255); stroke-opacity: 1;"/><path class="point" transform="translate(673.06,277.94)" d="M4.5,0A4.5,4.5 0 1,1 0,-4.5A4.5,4.5 0 0,1 4.5,0Z" style="opacity: 1; stroke-width: 1px; fill: rgb(26, 58, 92); fill-opacity: 1; stroke: rgb(255, 255, 255); stroke-opacity: 1;"/><path class="point" transform="translate(394.63,169.06)" d="M4.5,0A4.5,4.5 0 1,1 0,-4.5A4.5,4.5 0 0,1 4.5,0Z" style="opacity: 1; stroke-width: 1px; fill: rgb(26, 58, 92); fill-opacity: 1; stroke: rgb(255, 255, 255); stroke-opacity: 1;"/></g><g class="text"><g class="textpoint" transform="translate(0,-8.375)"><text x="818.03" y="182.1" text-anchor="middle" style="font-family: 'Open Sans', verdana, arial, sans-serif; font-size: 7px; fill: rgb(26, 58, 92); fill-opacity: 1; white-space: pre;">Florida</text></g><g class="textpoint" transform="translate(0,-8.375)"><text x="634.16" y="198.93" text-anchor="middle" style="font-family: 'Open Sans', verdana, arial, sans-serif; font-size: 7px; fill: rgb(26, 58, 92); fill-opacity: 1; white-space: pre;">Georgia</text></g><g class="textpoint" transform="translate(0,-8.375)"><text x="648.8" y="236.34" text-anchor="middle" style="font-family: 'Open Sans', verdana, arial, sans-serif; font-size: 7px; fill: rgb(26, 58, 92); fill-opacity: 1; white-space: pre;">Illinois</text></g><g class="textpoint" transform="translate(0,-8.375)"><text x="668.91" y="213.25" text-anchor="middle" style="font-family: 'Open Sans', verdana, arial, sans-serif; font-size: 7px; fill: rgb(26, 58, 92); fill-opacity: 1; white-space: pre;">IowaState</text></g><g class="textpoint" transform="translate(0,-8.375)"><text x="726.36" y="153.13" text-anchor="middle" style="font-family: 'Open Sans', verdana, arial, sans-serif; font-size: 7px; fill: rgb(26, 58, 92); fill-opacity: 1; white-space: pre;">KState</text></g><g class="textpoint" transform="translate(0,-8.375)"><text x="671.05" y="171.65" text-anchor="middle" style="font-family: 'Open Sans', verdana, arial, sans-serif; font-size: 7px; fill: rgb(26, 58, 92); fill-opacity: 1; white-space: pre;">MU</text></g><g class="textpoint" transform="translate(0,-8.375)"><text x="571.29" y="168.49" text-anchor="middle" style="font-family: 'Open Sans', verdana, arial, sans-serif; font-size: 7px; fill: rgb(26, 58, 92); fill-opacity: 1; white-space: pre;">Michigan</text></g><g class="textpoint" transform="translate(0,-8.375)"><text x="538.3" y="160.44" text-anchor="middle" style="font-family: 'Open Sans', verdana, arial, sans-serif; font-size: 7px; fill: rgb(26, 58, 92); fill-opacity: 1; white-space: pre;">Minnesota</text></g><g class="textpoint" transform="translate(0,-8.375)"><text x="696.66" y="207.18" text-anchor="middle" style="font-family: 'Open Sans', verdana, arial, sans-serif; font-size: 7px; fill: rgb(26, 58, 92); fill-opacity: 1; white-space: pre;">Nebraska</text></g><g class="textpoint" transform="translate(0,-8.375)"><text x="530.32" y="182.7" text-anchor="middle" style="font-family: 'Open Sans', verdana, arial, sans-serif; font-size: 7px; fill: rgb(26, 58, 92); fill-opacity: 1; white-space: pre;">NorthCarolina</text></g><g class="textpoint" transform="translate(0,-8.375)"><text x="407.44" y="190.24" text-anchor="middle" style="font-family: 'Open Sans', verdana, arial, sans-serif; font-size: 7px; fill: rgb(26, 58, 92); fill-opacity: 1; white-space: pre;">Purdue</text></g><g class="textpoint" transform="translate(0,-8.375)"><text x="494.87" y="217.66" text-anchor="middle" style="font-family: 'Open Sans', verdana, arial, sans-serif; font-size: 7px; fill: rgb(26, 58, 92); fill-opacity: 1; white-space: pre;">TexasA&amp;M</text></g><g class="textpoint" transform="translate(0,-8.375)"><text x="494.92" y="159.44" text-anchor="middle" style="font-family: 'Open Sans', verdana, arial, sans-serif; font-size: 7px; fill: rgb(26, 58, 92); fill-opacity: 1; white-space: pre;">UCDavis</text></g><g class="textpoint" transform="translate(0,-8.375)"><text x="673.06" y="277.94" text-anchor="middle" style="font-family: 'Open Sans', verdana, arial, sans-serif; font-size: 7px; fill: rgb(26, 58, 92); fill-opacity: 1; white-space: pre;">WashState</text></g><g class="textpoint" transform="translate(0,-8.375)"><text x="394.63" y="169.06" text-anchor="middle" style="font-family: 'Open Sans', verdana, arial, sans-serif; font-size: 7px; fill: rgb(26, 58, 92); fill-opacity: 1; white-space: pre;">Wisconsin</text></g></g></g><g class="trace scatter trace860da8" style="stroke-miterlimit: 2; opacity: 1;"><g class="fills"/><g class="errorbars"/><g class="lines"/><g class="points"><path class="point" transform="translate(134.38,498.69)" d="M4.5,0A4.5,4.5 0 1,1 0,-4.5A4.5,4.5 0 0,1 4.5,0Z" style="opacity: 1; stroke-width: 1px; fill: rgb(127, 175, 212); fill-opacity: 1; stroke: rgb(255, 255, 255); stroke-opacity: 1;"/><path class="point" transform="translate(327.33,488.41)" d="M4.5,0A4.5,4.5 0 1,1 0,-4.5A4.5,4.5 0 0,1 4.5,0Z" style="opacity: 1; stroke-width: 1px; fill: rgb(127, 175, 212); fill-opacity: 1; stroke: rgb(255, 255, 255); stroke-opacity: 1;"/><path class="point" transform="translate(333.26,427.74)" d="M4.5,0A4.5,4.5 0 1,1 0,-4.5A4.5,4.5 0 0,1 4.5,0Z" style="opacity: 1; stroke-width: 1px; fill: rgb(127, 175, 212); fill-opacity: 1; stroke: rgb(255, 255, 255); stroke-opacity: 1;"/><path class="point" transform="translate(406.26,344.26)" d="M4.5,0A4.5,4.5 0 1,1 0,-4.5A4.5,4.5 0 0,1 4.5,0Z" style="opacity: 1; stroke-width: 1px; fill: rgb(127, 175, 212); fill-opacity: 1; stroke: rgb(255, 255, 255); stroke-opacity: 1;"/><path class="point" transform="translate(70.43,523.04)" d="M4.5,0A4.5,4.5 0 1,1 0,-4.5A4.5,4.5 0 0,1 4.5,0Z" style="opacity: 1; stroke-width: 1px; fill: rgb(127, 175, 212); fill-opacity: 1; stroke: rgb(255, 255, 255); stroke-opacity: 1;"/><path class="point" transform="translate(176.85,554.21)" d="M4.5,0A4.5,4.5 0 1,1 0,-4.5A4.5,4.5 0 0,1 4.5,0Z" style="opacity: 1; stroke-width: 1px; fill: rgb(127, 175, 212); fill-opacity: 1; stroke: rgb(255, 255, 255); stroke-opacity: 1;"/><path class="point" transform="translate(70.43,499.74)" d="M4.5,0A4.5,4.5 0 1,1 0,-4.5A4.5,4.5 0 0,1 4.5,0Z" style="opacity: 1; stroke-width: 1px; fill: rgb(127, 175, 212); fill-opacity: 1; stroke: rgb(255, 255, 255); stroke-opacity: 1;"/><path class="point" transform="translate(150.12,423.96)" d="M4.5,0A4.5,4.5 0 1,1 0,-4.5A4.5,4.5 0 0,1 4.5,0Z" style="opacity: 1; stroke-width: 1px; fill: rgb(127, 175, 212); fill-opacity: 1; stroke: rgb(255, 255, 255); stroke-opacity: 1;"/><path class="point" transform="translate(189.09,488.97)" d="M4.5,0A4.5,4.5 0 1,1 0,-4.5A4.5,4.5 0 0,1 4.5,0Z" style="opacity: 1; stroke-width: 1px; fill: rgb(127, 175, 212); fill-opacity: 1; stroke: rgb(255, 255, 255); stroke-opacity: 1;"/><path class="point" transform="translate(167.09,583.38)" d="M4.5,0A4.5,4.5 0 1,1 0,-4.5A4.5,4.5 0 0,1 4.5,0Z" style="opacity: 1; stroke-width: 1px; fill: rgb(127, 175, 212); fill-opacity: 1; stroke: rgb(255, 255, 255); stroke-opacity: 1;"/><path class="point" transform="translate(85.17,555.2)" d="M4.5,0A4.5,4.5 0 1,1 0,-4.5A4.5,4.5 0 0,1 4.5,0Z" style="opacity: 1; stroke-width: 1px; fill: rgb(127, 175, 212); fill-opacity: 1; stroke: rgb(255, 255, 255); stroke-opacity: 1;"/><path class="point" transform="translate(142.43,581.65)" d="M4.5,0A4.5,4.5 0 1,1 0,-4.5A4.5,4.5 0 0,1 4.5,0Z" style="opacity: 1; stroke-width: 1px; fill: rgb(127, 175, 212); fill-opacity: 1; stroke: rgb(255, 255, 255); stroke-opacity: 1;"/><path class="point" transform="translate(429.8,403.66)" d="M4.5,0A4.5,4.5 0 1,1 0,-4.5A4.5,4.5 0 0,1 4.5,0Z" style="opacity: 1; stroke-width: 1px; fill: rgb(127, 175, 212); fill-opacity: 1; stroke: rgb(255, 255, 255); stroke-opacity: 1;"/><path class="point" transform="translate(342.89,455.2)" d="M4.5,0A4.5,4.5 0 1,1 0,-4.5A4.5,4.5 0 0,1 4.5,0Z" style="opacity: 1; stroke-width: 1px; fill: rgb(127, 175, 212); fill-opacity: 1; stroke: rgb(255, 255, 255); stroke-opacity: 1;"/><path class="point" transform="translate(158.42,550.82)" d="M4.5,0A4.5,4.5 0 1,1 0,-4.5A4.5,4.5 0 0,1 4.5,0Z" style="opacity: 1; stroke-width: 1px; fill: rgb(127, 175, 212); fill-opacity: 1; stroke: rgb(255, 255, 255); stroke-opacity: 1;"/><path class="point" transform="translate(465.1,555.08)" d="M4.5,0A4.5,4.5 0 1,1 0,-4.5A4.5,4.5 0 0,1 4.5,0Z" style="opacity: 1; stroke-width: 1px; fill: rgb(127, 175, 212); fill-opacity: 1; stroke: rgb(255, 255, 255); stroke-opacity: 1;"/><path class="point" transform="translate(597.16,450.53)" d="M4.5,0A4.5,4.5 0 1,1 0,-4.5A4.5,4.5 0 0,1 4.5,0Z" style="opacity: 1; stroke-width: 1px; fill: rgb(127, 175, 212); fill-opacity: 1; stroke: rgb(255, 255, 255); stroke-opacity: 1;"/><path class="point" transform="translate(223.2,493.52)" d="M4.5,0A4.5,4.5 0 1,1 0,-4.5A4.5,4.5 0 0,1 4.5,0Z" style="opacity: 1; stroke-width: 1px; fill: rgb(127, 175, 212); fill-opacity: 1; stroke: rgb(255, 255, 255); stroke-opacity: 1;"/><path class="point" transform="translate(149.8,516.97)" d="M4.5,0A4.5,4.5 0 1,1 0,-4.5A4.5,4.5 0 0,1 4.5,0Z" style="opacity: 1; stroke-width: 1px; fill: rgb(127, 175, 212); fill-opacity: 1; stroke: rgb(255, 255, 255); stroke-opacity: 1;"/><path class="point" transform="translate(140.38,454.46)" d="M4.5,0A4.5,4.5 0 1,1 0,-4.5A4.5,4.5 0 0,1 4.5,0Z" style="opacity: 1; stroke-width: 1px; fill: rgb(127, 175, 212); fill-opacity: 1; stroke: rgb(255, 255, 255); stroke-opacity: 1;"/><path class="point" transform="translate(208.32,349.87)" d="M4.5,0A4.5,4.5 0 1,1 0,-4.5A4.5,4.5 0 0,1 4.5,0Z" style="opacity: 1; stroke-width: 1px; fill: rgb(127, 175, 212); fill-opacity: 1; stroke: rgb(255, 255, 255); stroke-opacity: 1;"/><path class="point" transform="translate(229.52,516.89)" d="M4.5,0A4.5,4.5 0 1,1 0,-4.5A4.5,4.5 0 0,1 4.5,0Z" style="opacity: 1; stroke-width: 1px; fill: rgb(127, 175, 212); fill-opacity: 1; stroke: rgb(255, 255, 255); stroke-opacity: 1;"/><path class="point" transform="translate(321.57,487.97)" d="M4.5,0A4.5,4.5 0 1,1 0,-4.5A4.5,4.5 0 0,1 4.5,0Z" style="opacity: 1; stroke-width: 1px; fill: rgb(127, 175, 212); fill-opacity: 1; stroke: rgb(255, 255, 255); stroke-opacity: 1;"/><path class="point" transform="translate(496.52,409.08)" d="M4.5,0A4.5,4.5 0 1,1 0,-4.5A4.5,4.5 0 0,1 4.5,0Z" style="opacity: 1; stroke-width: 1px; fill: rgb(127, 175, 212); fill-opacity: 1; stroke: rgb(255, 255, 255); stroke-opacity: 1;"/><path class="point" transform="translate(245.06,393.77)" d="M4.5,0A4.5,4.5 0 1,1 0,-4.5A4.5,4.5 0 0,1 4.5,0Z" style="opacity: 1; stroke-width: 1px; fill: rgb(127, 175, 212); fill-opacity: 1; stroke: rgb(255, 255, 255); stroke-opacity: 1;"/><path class="point" transform="translate(528.33,388.82)" d="M4.5,0A4.5,4.5 0 1,1 0,-4.5A4.5,4.5 0 0,1 4.5,0Z" style="opacity: 1; stroke-width: 1px; fill: rgb(127, 175, 212); fill-opacity: 1; stroke: rgb(255, 255, 255); stroke-opacity: 1;"/><path class="point" transform="translate(341.45,365.21)" d="M4.5,0A4.5,4.5 0 1,1 0,-4.5A4.5,4.5 0 0,1 4.5,0Z" style="opacity: 1; stroke-width: 1px; fill: rgb(127, 175, 212); fill-opacity: 1; stroke: rgb(255, 255, 255); stroke-opacity: 1;"/><path class="point" transform="translate(48.98,489.44)" d="M4.5,0A4.5,4.5 0 1,1 0,-4.5A4.5,4.5 0 0,1 4.5,0Z" style="opacity: 1; stroke-width: 1px; fill: rgb(127, 175, 212); fill-opacity: 1; stroke: rgb(255, 255, 255); stroke-opacity: 1;"/></g><g class="text"><g class="textpoint" transform="translate(0,-8.375)"><text x="134.38" y="498.69" text-anchor="middle" style="font-family: 'Open Sans', verdana, arial, sans-serif; font-size: 7px; fill: rgb(127, 175, 212); fill-opacity: 1; white-space: pre;">Arizona</text></g><g class="textpoint" transform="translate(0,-8.375)"><text x="327.33" y="488.41" text-anchor="middle" style="font-family: 'Open Sans', verdana, arial, sans-serif; font-size: 7px; fill: rgb(127, 175, 212); fill-opacity: 1; white-space: pre;">Auburn</text></g><g class="textpoint" transform="translate(0,-8.375)"><text x="333.26" y="427.74" text-anchor="middle" style="font-family: 'Open Sans', verdana, arial, sans-serif; font-size: 7px; fill: rgb(127, 175, 212); fill-opacity: 1; white-space: pre;">Clemson</text></g><g class="textpoint" transform="translate(0,-8.375)"><text x="406.26" y="344.26" text-anchor="middle" style="font-family: 'Open Sans', verdana, arial, sans-serif; font-size: 7px; fill: rgb(127, 175, 212); fill-opacity: 1; white-space: pre;">ColoradoState</text></g><g class="textpoint" transform="translate(0,-8.375)"><text x="70.43" y="523.04" text-anchor="middle" style="font-family: 'Open Sans', verdana, arial, sans-serif; font-size: 7px; fill: rgb(127, 175, 212); fill-opacity: 1; white-space: pre;">Connecticut</text></g><g class="textpoint" transform="translate(0,-8.375)"><text x="176.85" y="554.21" text-anchor="middle" style="font-family: 'Open Sans', verdana, arial, sans-serif; font-size: 7px; fill: rgb(127, 175, 212); fill-opacity: 1; white-space: pre;">Cornell</text></g><g class="textpoint" transform="translate(0,-8.375)"><text x="70.43" y="499.74" text-anchor="middle" style="font-family: 'Open Sans', verdana, arial, sans-serif; font-size: 7px; fill: rgb(127, 175, 212); fill-opacity: 1; white-space: pre;">Delaware</text></g><g class="textpoint" transform="translate(0,-8.375)"><text x="150.12" y="423.96" text-anchor="middle" style="font-family: 'Open Sans', verdana, arial, sans-serif; font-size: 7px; fill: rgb(127, 175, 212); fill-opacity: 1; white-space: pre;">Hawaii</text></g><g class="textpoint" transform="translate(0,-8.375)"><text x="189.09" y="488.97" text-anchor="middle" style="font-family: 'Open Sans', verdana, arial, sans-serif; font-size: 7px; fill: rgb(127, 175, 212); fill-opacity: 1; white-space: pre;">Kentucky</text></g><g class="textpoint" transform="translate(0,-8.375)"><text x="167.09" y="583.38" text-anchor="middle" style="font-family: 'Open Sans', verdana, arial, sans-serif; font-size: 7px; fill: rgb(127, 175, 212); fill-opacity: 1; white-space: pre;">LouisianaState</text></g><g class="textpoint" transform="translate(0,-8.375)"><text x="85.17" y="555.2" text-anchor="middle" style="font-family: 'Open Sans', verdana, arial, sans-serif; font-size: 7px; fill: rgb(127, 175, 212); fill-opacity: 1; white-space: pre;">Maryland</text></g><g class="textpoint" transform="translate(0,-8.375)"><text x="142.43" y="581.65" text-anchor="middle" style="font-family: 'Open Sans', verdana, arial, sans-serif; font-size: 7px; fill: rgb(127, 175, 212); fill-opacity: 1; white-space: pre;">Massachusetts</text></g><g class="textpoint" transform="translate(0,-8.375)"><text x="429.8" y="403.66" text-anchor="middle" style="font-family: 'Open Sans', verdana, arial, sans-serif; font-size: 7px; fill: rgb(127, 175, 212); fill-opacity: 1; white-space: pre;">Mississippi</text></g><g class="textpoint" transform="translate(0,-8.375)"><text x="342.89" y="455.2" text-anchor="middle" style="font-family: 'Open Sans', verdana, arial, sans-serif; font-size: 7px; fill: rgb(127, 175, 212); fill-opacity: 1; white-space: pre;">MontanaState</text></g><g class="textpoint" transform="translate(0,-8.375)"><text x="158.42" y="550.82" text-anchor="middle" style="font-family: 'Open Sans', verdana, arial, sans-serif; font-size: 7px; fill: rgb(127, 175, 212); fill-opacity: 1; white-space: pre;">Nevada</text></g><g class="textpoint" transform="translate(0,-8.375)"><text x="465.1" y="555.08" text-anchor="middle" style="font-family: 'Open Sans', verdana, arial, sans-serif; font-size: 7px; fill: rgb(127, 175, 212); fill-opacity: 1; white-space: pre;">NewMexico</text></g><g class="textpoint" transform="translate(0,-8.375)"><text x="597.16" y="450.53" text-anchor="middle" style="font-family: 'Open Sans', verdana, arial, sans-serif; font-size: 7px; fill: rgb(127, 175, 212); fill-opacity: 1; white-space: pre;">NorthDakota</text></g><g class="textpoint" transform="translate(0,-8.375)"><text x="223.2" y="493.52" text-anchor="middle" style="font-family: 'Open Sans', verdana, arial, sans-serif; font-size: 7px; fill: rgb(127, 175, 212); fill-opacity: 1; white-space: pre;">OKState</text></g><g class="textpoint" transform="translate(0,-8.375)"><text x="149.8" y="516.97" text-anchor="middle" style="font-family: 'Open Sans', verdana, arial, sans-serif; font-size: 7px; fill: rgb(127, 175, 212); fill-opacity: 1; white-space: pre;">OhioState</text></g><g class="textpoint" transform="translate(0,-8.375)"><text x="140.38" y="454.46" text-anchor="middle" style="font-family: 'Open Sans', verdana, arial, sans-serif; font-size: 7px; fill: rgb(127, 175, 212); fill-opacity: 1; white-space: pre;">Oregon</text></g><g class="textpoint" transform="translate(0,-8.375)"><text x="208.32" y="349.87" text-anchor="middle" style="font-family: 'Open Sans', verdana, arial, sans-serif; font-size: 7px; fill: rgb(127, 175, 212); fill-opacity: 1; white-space: pre;">PennState</text></g><g class="textpoint" transform="translate(0,-8.375)"><text x="229.52" y="516.89" text-anchor="middle" style="font-family: 'Open Sans', verdana, arial, sans-serif; font-size: 7px; fill: rgb(127, 175, 212); fill-opacity: 1; white-space: pre;">Rutgers</text></g><g class="textpoint" transform="translate(0,-8.375)"><text x="321.57" y="487.97" text-anchor="middle" style="font-family: 'Open Sans', verdana, arial, sans-serif; font-size: 7px; fill: rgb(127, 175, 212); fill-opacity: 1; white-space: pre;">SouthDakota</text></g><g class="textpoint" transform="translate(0,-8.375)"><text x="496.52" y="409.08" text-anchor="middle" style="font-family: 'Open Sans', verdana, arial, sans-serif; font-size: 7px; fill: rgb(127, 175, 212); fill-opacity: 1; white-space: pre;">UArk</text></g><g class="textpoint" transform="translate(0,-8.375)"><text x="245.06" y="393.77" text-anchor="middle" style="font-family: 'Open Sans', verdana, arial, sans-serif; font-size: 7px; fill: rgb(127, 175, 212); fill-opacity: 1; white-space: pre;">UCRiver</text></g><g class="textpoint" transform="translate(0,-8.375)"><text x="528.33" y="388.82" text-anchor="middle" style="font-family: 'Open Sans', verdana, arial, sans-serif; font-size: 7px; fill: rgb(127, 175, 212); fill-opacity: 1; white-space: pre;">UTenn</text></g><g class="textpoint" transform="translate(0,-8.375)"><text x="341.45" y="365.21" text-anchor="middle" style="font-family: 'Open Sans', verdana, arial, sans-serif; font-size: 7px; fill: rgb(127, 175, 212); fill-opacity: 1; white-space: pre;">VirginiaTech</text></g><g class="textpoint" transform="translate(0,-8.375)"><text x="48.98" y="489.44" text-anchor="middle" style="font-family: 'Open Sans', verdana, arial, sans-serif; font-size: 7px; fill: rgb(127, 175, 212); fill-opacity: 1; white-space: pre;">Wyoming</text></g></g></g></g></g></g><g class="zerolinelayer-above"/><path class="xlines-above crisp" d="M0,0" style="fill: none;"/><path class="ylines-above crisp" d="M0,0" style="fill: none;"/><g class="overlines-above"/><g class="xaxislayer-above"><g class="xtick"><text text-anchor="middle" x="0" y="703" transform="translate(130.36,0)" style="font-family: 'Open Sans', verdana, arial, sans-serif; font-size: 12px; fill: rgb(42, 63, 95); fill-opacity: 1; white-space: pre;">0.6</text></g><g class="xtick"><text text-anchor="middle" x="0" y="703" style="font-family: 'Open Sans', verdana, arial, sans-serif; font-size: 12px; fill: rgb(42, 63, 95); fill-opacity: 1; white-space: pre;" transform="translate(267.65999999999997,0)">0.8</text></g><g class="xtick"><text text-anchor="middle" x="0" y="703" style="font-family: 'Open Sans', verdana, arial, sans-serif; font-size: 12px; fill: rgb(42, 63, 95); fill-opacity: 1; white-space: pre;" transform="translate(404.96,0)">1</text></g><g class="xtick"><text text-anchor="middle" x="0" y="703" style="font-family: 'Open Sans', verdana, arial, sans-serif; font-size: 12px; fill: rgb(42, 63, 95); fill-opacity: 1; white-space: pre;" transform="translate(542.27,0)">1.2</text></g><g class="xtick"><text text-anchor="middle" x="0" y="703" style="font-family: 'Open Sans', verdana, arial, sans-serif; font-size: 12px; fill: rgb(42, 63, 95); fill-opacity: 1; white-space: pre;" transform="translate(679.57,0)">1.4</text></g><g class="xtick"><text text-anchor="middle" x="0" y="703" style="font-family: 'Open Sans', verdana, arial, sans-serif; font-size: 12px; fill: rgb(42, 63, 95); fill-opacity: 1; white-space: pre;" transform="translate(816.87,0)">1.6</text></g></g><g class="yaxislayer-above"><g class="ytick"><text text-anchor="end" x="72" y="4.199999999999999" transform="translate(0,678.1)" style="font-family: 'Open Sans', verdana, arial, sans-serif; font-size: 12px; fill: rgb(42, 63, 95); fill-opacity: 1; white-space: pre;">0.005</text></g><g class="ytick"><text text-anchor="end" x="72" y="4.199999999999999" style="font-family: 'Open Sans', verdana, arial, sans-serif; font-size: 12px; fill: rgb(42, 63, 95); fill-opacity: 1; white-space: pre;" transform="translate(0,612.06)">0.01</text></g><g class="ytick"><text text-anchor="end" x="72" y="4.199999999999999" style="font-family: 'Open Sans', verdana, arial, sans-serif; font-size: 12px; fill: rgb(42, 63, 95); fill-opacity: 1; white-space: pre;" transform="translate(0,546.02)">0.015</text></g><g class="ytick"><text text-anchor="end" x="72" y="4.199999999999999" style="font-family: 'Open Sans', verdana, arial, sans-serif; font-size: 12px; fill: rgb(42, 63, 95); fill-opacity: 1; white-space: pre;" transform="translate(0,479.99)">0.02</text></g><g class="ytick"><text text-anchor="end" x="72" y="4.199999999999999" style="font-family: 'Open Sans', verdana, arial, sans-serif; font-size: 12px; fill: rgb(42, 63, 95); fill-opacity: 1; white-space: pre;" transform="translate(0,413.95)">0.025</text></g><g class="ytick"><text text-anchor="end" x="72" y="4.199999999999999" style="font-family: 'Open Sans', verdana, arial, sans-serif; font-size: 12px; fill: rgb(42, 63, 95); fill-opacity: 1; white-space: pre;" transform="translate(0,347.92)">0.03</text></g><g class="ytick"><text text-anchor="end" x="72" y="4.199999999999999" style="font-family: 'Open Sans', verdana, arial, sans-serif; font-size: 12px; fill: rgb(42, 63, 95); fill-opacity: 1; white-space: pre;" transform="translate(0,281.88)">0.035</text></g><g class="ytick"><text text-anchor="end" x="72" y="4.199999999999999" style="font-family: 'Open Sans', verdana, arial, sans-serif; font-size: 12px; fill: rgb(42, 63, 95); fill-opacity: 1; white-space: pre;" transform="translate(0,215.85)">0.04</text></g><g class="ytick"><text text-anchor="end" x="72" y="4.199999999999999" style="font-family: 'Open Sans', verdana, arial, sans-serif; font-size: 12px; fill: rgb(42, 63, 95); fill-opacity: 1; white-space: pre;" transform="translate(0,149.81)">0.045</text></g><g class="ytick"><text text-anchor="end" x="72" y="4.199999999999999" style="font-family: 'Open Sans', verdana, arial, sans-serif; font-size: 12px; fill: rgb(42, 63, 95); fill-opacity: 1; white-space: pre;" transform="translate(0,83.77)">0.05</text></g></g><g class="overaxes-above"/></g></g><g class="polarlayer"/><g class="smithlayer"/><g class="ternarylayer"/><g class="geolayer"/><g class="funnelarealayer"/><g class="pielayer"/><g class="iciclelayer"/><g class="treemaplayer"/><g class="sunburstlayer"/><g class="glimages"/><defs id="topdefs-4f3238"><g class="clips"/><clipPath id="legend4f3238"><rect width="137" height="48" x="0" y="0"/></clipPath></defs><g class="layer-above"><g class="imagelayer"/><g class="shapelayer"/></g><g class="infolayer"><g class="legend" pointer-events="all" transform="translate(662.5600000000001,549)"><rect class="bg" shape-rendering="crispEdges" style="stroke: rgb(68, 68, 68); stroke-opacity: 1; fill: rgb(255, 255, 255); fill-opacity: 0.8; stroke-width: 0px;" width="137" height="48" x="0" y="0"/><g class="scrollbox" transform="" clip-path="url(#legend4f3238)"><g class="groups"><g class="traces" transform="translate(0,14.5)" style="opacity: 1;"><text class="legendtext" text-anchor="start" x="40" y="4.680000000000001" style="font-family: 'Open Sans', verdana, arial, sans-serif; font-size: 12px; fill: rgb(42, 63, 95); fill-opacity: 1; white-space: pre;">High PageRank</text><g class="layers" style="opacity: 1;"><g class="legendfill"/><g class="legendlines"/><g class="legendsymbols"><g class="legendpoints"><path class="scatterpts" transform="translate(20,0)" d="M4.5,0A4.5,4.5 0 1,1 0,-4.5A4.5,4.5 0 0,1 4.5,0Z" style="opacity: 1; stroke-width: 1px; fill: rgb(26, 58, 92); fill-opacity: 1; stroke: rgb(255, 255, 255); stroke-opacity: 1;"/></g></g></g><rect class="legendtoggle" x="0" y="-9.5" width="131.28515625" height="19" style="fill: rgb(0, 0, 0); fill-opacity: 0;"/></g><g class="traces" transform="translate(0,33.5)" style="opacity: 1;"><text class="legendtext" text-anchor="start" x="40" y="4.680000000000001" style="font-family: 'Open Sans', verdana, arial, sans-serif; font-size: 12px; fill: rgb(42, 63, 95); fill-opacity: 1; white-space: pre;">Low PageRank</text><g class="layers" style="opacity: 1;"><g class="legendfill"/><g class="legendlines"/><g class="legendsymbols"><g class="legendpoints"><path class="scatterpts" transform="translate(20,0)" d="M4.5,0A4.5,4.5 0 1,1 0,-4.5A4.5,4.5 0 0,1 4.5,0Z" style="opacity: 1; stroke-width: 1px; fill: rgb(127, 175, 212); fill-opacity: 1; stroke: rgb(255, 255, 255); stroke-opacity: 1;"/></g></g></g><rect class="legendtoggle" x="0" y="-9.5" width="131.28515625" height="19" style="fill: rgb(0, 0, 0); fill-opacity: 0;"/></g></g></g><rect class="scrollbar" rx="20" ry="3" width="0" height="0" style="fill: rgb(128, 139, 164); fill-opacity: 1;" x="0" y="0"/></g><g class="g-gtitle"><text class="gtitle" x="500" y="35" text-anchor="middle" dy="0em" style="opacity: 1; font-family: 'Open Sans', verdana, arial, sans-serif; font-size: 16px; fill: rgb(42, 63, 95); fill-opacity: 1; white-space: pre;">Internal Collaboration Density Predicts National Influence</text></g><g class="g-xtitle"><text class="xtitle" x="506.5" y="730.3" text-anchor="middle" style="opacity: 1; font-family: 'Open Sans', verdana, arial, sans-serif; font-size: 14px; fill: rgb(42, 63, 95); fill-opacity: 1; white-space: pre;">log(EdgesPerNode + 1)</text></g><g class="g-ytitle"><text class="ytitle" transform="rotate(-90,17.709375,380)" x="17.709375" y="380" text-anchor="middle" style="opacity: 1; font-family: 'Open Sans', verdana, arial, sans-serif; font-size: 14px; fill: rgb(42, 63, 95); fill-opacity: 1; white-space: pre;">PageRank</text></g><g class="annotation" data-index="0" style="opacity: 1;"><g class="annotation-text-g" transform="rotate(0,183.35,138.00000000000003)"><g class="cursor-pointer" transform="translate(116,101)"><rect class="bg" x="0.5" y="0.5" width="133" height="73" style="stroke-width: 1px; stroke: rgb(204, 204, 204); stroke-opacity: 1; fill: rgb(255, 255, 255); fill-opacity: 0.85;"/><text class="annotation-text" text-anchor="middle" x="66.796875" y="13" style="font-family: 'Open Sans', verdana, arial, sans-serif; font-size: 11px; fill: rgb(42, 63, 95); fill-opacity: 1; white-space: pre;"><tspan class="line" dy="0em" x="66.796875" y="13">Gamma GLM — log link</tspan><tspan class="line" dy="1.3em" x="66.796875" y="13">β = 1.3123</tspan><tspan class="line" dy="2.6em" x="66.796875" y="13">p &#60; 0.0001</tspan><tspan class="line" dy="3.9000000000000004em" x="66.796875" y="13">Pseudo R² = 0.595</tspan><tspan class="line" dy="5.2em" x="66.796875" y="13">AIC = -306.30</tspan></text></g></g></g></g></svg>